#!OML:ASF F:\VICON\USERDATA\INSTALL\rory3\rory3.ASF
:FULLY-SPECIFIED
:DEGREES
425
root 4.46945 16.5024 2.08828 10.9417 -4.67016 -1.36037
lowerback 4.61703 -0.285483 -0.610699
upperback 1.90697 -0.41111 -0.400478
thorax -0.629184 -0.207011 -0.0471974
lowerneck -14.58 -1.19094 -1.46147
upperneck 42.9039 -1.63124 0.329373
head 18.731 -0.89335 0.0893589
rclavicle 8.15017e-015 3.18055e-015
rhumerus 15.057 32.1679 -24.29
rradius 98.4494
rwrist -46.0508
rhand -8.60396 -48.0852
rfingers 7.12502
rthumb 17.3276 -77.3328
lclavicle 8.15017e-015 3.18055e-015
lhumerus 34.0947 -23.614 16.4972
lradius 89.878
lwrist 84.9251
lhand -25.9605 -21.9346
lfingers 7.12502
lthumb 0.583932 8.04434
rfemur -58.4724 -0.0374654 16.2654
rtibia 31.5013
rfoot 38.732 -5.33803
rtoes 5.87815
lfemur -36.5217 0.452844 -28.5711
ltibia 47.5174
lfoot -20.601 4.83281
ltoes 16.0448
426
root 4.4764 16.4976 2.0835 10.9916 -4.76031 -1.51639
lowerback 4.60272 -0.264562 -0.324107
upperback 1.93925 -0.370769 -0.389982
thorax -0.590048 -0.185829 -0.199345
lowerneck -14.3065 -1.16806 -1.50792
upperneck 42.8266 -1.56284 0.287265
head 18.6054 -0.88075 0.093281
rclavicle 1.41137e-014 1.59028e-015
rhumerus 14.9418 32.6801 -24.4845
rradius 98.3277
rwrist -46.0382
rhand -7.98893 -48.3753
rfingers 7.12502
rthumb 17.9195 -77.5698
lclavicle 1.41137e-014 1.59028e-015
lhumerus 34.1281 -24.2204 16.494
lradius 89.9679
lwrist 84.8974
lhand -26.5119 -22.1202
lfingers 7.12502
lthumb 0.0513398 7.85953
rfemur -58.5347 -0.113484 16.6042
rtibia 31.4902
rfoot 38.7315 -4.97372
rtoes 5.49325
lfemur -36.6206 0.507169 -28.4282
ltibia 47.5841
lfoot -20.5834 4.90644
ltoes 16.0151
427
root 4.51709 16.4893 2.07731 11.2274 -4.69315 -1.19134
lowerback 4.54855 -0.340047 0.0191904
upperback 1.80642 -0.458771 -0.574175
thorax -0.70034 -0.227928 -0.576057
lowerneck -14.2782 -1.07684 -1.29737
upperneck 43.0256 -1.3486 -0.0482798
head 18.7123 -0.807581 -0.0650363
rclavicle -9.14409e-015 -3.57812e-015
rhumerus 14.7839 33.3742 -24.5902
rradius 98.2186
rwrist -45.9062
rhand -7.82249 -47.8088
rfingers 7.12502
rthumb 18.0796 -76.9885
lclavicle -9.14409e-015 -3.57812e-015
lhumerus 34.0809 -24.9305 16.5728
lradius 90.1293
lwrist 84.8384
lhand -26.4916 -21.9611
lfingers 7.12502
lthumb 0.0709541 8.01865
rfemur -58.9549 -1.01717 16.7704
rtibia 31.6251
rfoot 38.6315 -4.84957
rtoes 6.85667
lfemur -36.8301 0.225412 -28.8979
ltibia 47.5689
lfoot -20.5442 5.07815
ltoes 16.0006
428
root 4.51154 16.4928 2.07137 11.4779 -4.02311 -0.470488
lowerback 4.52235 -0.593577 -0.59581
upperback 1.64637 -0.824081 -0.679578
thorax -0.846424 -0.41151 -0.319966
lowerneck -14.1439 -1.09872 -1.36475
upperneck 43.1539 -1.3543 -0.0702062
head 18.7564 -0.824858 -0.0643261
rclavicle -2.48481e-015 -1.98785e-015
rhumerus 14.5433 34.1152 -24.7573
rradius 98.1492
rwrist -45.5417
rhand -8.2552 -47.4104
rfingers 7.12502
rthumb 17.6633 -76.6281
lclavicle -2.48481e-015 -1.98785e-015
lhumerus 33.8858 -25.6315 16.6773
lradius 90.3629
lwrist 84.9042
lhand -26.5143 -21.2966
lfingers 7.12502
lthumb 0.0490291 8.68315
rfemur -59.3372 -2.18127 16.3017
rtibia 31.8976
rfoot 38.41 -4.52108
rtoes 6.93138
lfemur -36.9388 -0.513106 -29.6546
ltibia 47.443
lfoot -20.4965 4.98816
ltoes 16.0831
429
root 4.51061 16.4889 2.06137 11.4236 -4.00543 -0.411001
lowerback 4.2854 -0.607501 -0.619757
upperback 1.98365 -0.838218 -0.713479
thorax -0.368559 -0.419663 -0.345771
lowerneck -14.2639 -1.1329 -1.4198
upperneck 43.0903 -1.42058 0.00944281
head 18.7523 -0.848445 -0.0293018
rclavicle -9.64106e-015 -6.75868e-015
rhumerus 14.4909 34.3048 -24.8947
rradius 98.095
rwrist -45.4358
rhand -8.69519 -47.5888
rfingers 7.12502
rthumb 17.2398 -76.8441
lclavicle -9.64106e-015 -6.75868e-015
lhumerus 33.9755 -25.7377 16.645
lradius 90.4284
lwrist 85.2474
lhand -25.967 -20.867
lfingers 7.12502
lthumb 0.57765 9.112
rfemur -59.4277 -2.19524 16.243
rtibia 32.1464
rfoot 38.273 -4.30604
rtoes 6.53496
lfemur -36.9063 -0.515716 -29.7161
ltibia 47.4091
lfoot -20.4225 4.95356
ltoes 16.0446
430
root 4.51129 16.482 2.05499 11.401 -3.97404 -0.314619
lowerback 4.50375 -0.623291 -0.657317
upperback 1.92928 -0.864155 -0.766699
thorax -0.546381 -0.432237 -0.375047
lowerneck -14.1496 -1.13262 -1.45558
upperneck 43.2216 -1.45994 0.117048
head 18.8057 -0.856342 0.0212676
rclavicle -6.85807e-015 1.66979e-014
rhumerus 14.0993 34.9944 -25.169
rradius 98.0849
rwrist -45.6348
rhand -8.56536 -47.8375
rfingers 7.12502
rthumb 17.3648 -77.0818
lclavicle -6.85807e-015 1.66979e-014
lhumerus 33.9183 -26.4071 16.6383
lradius 90.5267
lwrist 85.5211
lhand -25.5139 -21.3076
lfingers 7.12502
lthumb 1.01524 8.66975
rfemur -59.5393 -2.32177 16.2178
rtibia 32.3615
rfoot 38.2596 -4.04813
rtoes 6.11609
lfemur -36.9091 -0.527421 -29.8295
ltibia 47.4163
lfoot -20.3758 4.90132
ltoes 16.05
